# xmcd
#
# Track frame offsets: 
#        150
#        14988
#        29937
#        43222
#        56481
#        71217
#        80789
#        93283
#        105765
#        118093
#        131744
#        144656
#        158316
#        172055
#        185455
#        198395
#        208034
#        219881
#        231168
#        244825
#        257447
#        269777
#        284856
#        296808
#        307955
#
# Disc length: 4276 seconds
#
# Revision: 0
# Processed by: cddbd v1.5.1PL0 Copyright (c) Steve Scherf et al.
# Submitted via: ExactAudioCopy v0.95a5
#
DISCID=8e10b219
DTITLE=Various Artist - Maverick Country CD 3- Old Dogs, Children and Watermelo
DTITLE=n Wine
DYEAR=2004
DGENRE=Country
TTITLE0=Vernon Dalhart - The wreck of the Old 97
TTITLE1=Jimmie Rogers - In the jailhouse now
TTITLE2=Paul Warmack and His Gully Jumpers - The little red caboose behi
TTITLE2=nd the train
TTITLE3=The Carter Family - Wabash cannonball
TTITLE4=Red Foley - Old Shep
TTITLE5=Floyd Tillman - They took the stars out of heaven
TTITLE6=Jack Guthrie - Oklahoma hills
TTITLE7=Bill Monroe - Kentucky waltz
TTITLE8=Hank Williams - Move it on over
TTITLE9=Lonzo And Oscar - I'm my own grandpa
TTITLE10=Hawkshaw Hawkins - Pan American
TTITLE11=Moon Mullican - I'll sail my ship alone
TTITLE12=Jim Reeves - Chicken hearted
TTITLE13=The Stanley Brothers - A vision of my mother
TTITLE14=The Stanley Brothers - Gathering flowers for the master's bou
TTITLE14=quet
TTITLE15=Jimmy Wakely and Margaret Whiting - Slipping around
TTITLE16=Don Gibson - Roses are red
TTITLE17=Bud Messner and His Sky Line Boys - Slippin' around with Jole B
TTITLE17=lon
TTITLE18=Jim Eanes and The Shenandoah Valley Boys - Missing in action
TTITLE19=Claude King - Beers and pinballs
TTITLE20=Webb Pierce - Back street affair
TTITLE21=Marvin Rainwater - Heart's hall of fame
TTITLE22=Hank Thompson and His Brazos Valley Boys - The wild side of lif
TTITLE22=e
TTITLE23=Kitty Wells - It wasn't God who made honky tonk angels
TTITLE24=Porter Wagoner - A satisfied mind
EXTD=
EXTT0=
EXTT1=
EXTT2=
EXTT3=
EXTT4=
EXTT5=
EXTT6=
EXTT7=
EXTT8=
EXTT9=
EXTT10=
EXTT11=
EXTT12=
EXTT13=
EXTT14=
EXTT15=
EXTT16=
EXTT17=
EXTT18=
EXTT19=
EXTT20=
EXTT21=
EXTT22=
EXTT23=
EXTT24=
PLAYORDER=
